<?xml version="1.0" encoding="UTF-8" standalone="no"?><!DOCTYPE svg PUBLIC "-//W3C//DTD SVG 1.1//EN" "http://www.w3.org/Graphics/SVG/1.1/DTD/svg11.dtd"><svg width="100%" height="100%" viewBox="0 0 255 36" version="1.1" xmlns="http://www.w3.org/2000/svg" xmlns:xlink="http://www.w3.org/1999/xlink" xml:space="preserve" xmlns:serif="http://www.serif.com/" style="fill-rule:evenodd;clip-rule:evenodd;stroke-linejoin:round;stroke-miterlimit:2;"><g><path d="M22.02,34.987l-10.045,-16.212l10.145,-18.179l9.79,0l-10.436,17.891l10.436,16.5l-9.89,-0Z" style="fill:#fff;fill-rule:nonzero;"/><rect x="-0" y="0.596" width="8.945" height="34.39" style="fill:#fff;fill-rule:nonzero;"/><path d="M105.615,34.987l-10.045,-16.212l10.145,-18.179l9.79,0l-10.436,17.891l10.436,16.5l-9.89,-0Z" style="fill:#fff;fill-rule:nonzero;"/><rect x="83.595" y="0.596" width="8.945" height="34.39" style="fill:#fff;fill-rule:nonzero;"/><path d="M244.225,34.987l-10.045,-16.212l10.144,-18.179l9.79,0l-10.436,17.891l10.436,16.5l-9.889,-0Z" style="fill:#f17400;fill-rule:nonzero;"/><rect x="222.204" y="0.596" width="8.945" height="34.39" style="fill:#f17400;fill-rule:nonzero;"/><rect x="35.886" y="0.596" width="8.945" height="34.39" style="fill:#fff;fill-rule:nonzero;"/><path d="M49.403,17.792l0,-0.05c0,-2.584 0.406,-4.962 1.218,-7.132c0.812,-2.17 1.98,-4.042 3.504,-5.615c1.524,-1.574 3.387,-2.8 5.59,-3.678c2.204,-0.878 4.697,-1.317 7.48,-1.317l0.05,-0c2.385,-0 4.646,0.348 6.783,1.044c2.137,0.695 4.017,1.805 5.641,3.329l-4.92,6.709c-1.093,-0.96 -2.261,-1.656 -3.504,-2.087c-1.242,-0.431 -2.576,-0.646 -4,-0.646l-0.05,0c-1.392,0 -2.634,0.249 -3.727,0.746c-1.094,0.497 -2.021,1.167 -2.783,2.012c-0.762,0.845 -1.342,1.839 -1.74,2.982c-0.397,1.143 -0.596,2.361 -0.596,3.653l-0,0.05c0.033,1.325 0.248,2.567 0.646,3.727c0.397,1.159 0.977,2.162 1.739,3.006c0.762,0.845 1.682,1.508 2.758,1.988c1.077,0.481 2.311,0.721 3.703,0.721l0.05,-0c1.656,-0 3.073,-0.24 4.249,-0.721c1.176,-0.48 2.261,-1.151 3.255,-2.012l4.92,6.709c-1.524,1.424 -3.322,2.509 -5.392,3.255c-2.071,0.745 -4.415,1.118 -7.032,1.118l-0.05,0c-2.783,0 -5.276,-0.439 -7.48,-1.317c-2.203,-0.878 -4.066,-2.112 -5.59,-3.702c-1.524,-1.591 -2.692,-3.471 -3.504,-5.641c-0.812,-2.17 -1.218,-4.547 -1.218,-7.131Z" style="fill:#fff;fill-rule:nonzero;"/><path d="M142.689,18.09c1.822,0.464 3.247,1.267 4.274,2.41c1.027,1.143 1.541,2.791 1.541,4.945c-0,1.723 -0.348,3.189 -1.044,4.398c-0.696,1.209 -1.64,2.195 -2.833,2.957c-1.192,0.762 -2.584,1.317 -4.174,1.665c-1.59,0.348 -3.28,0.522 -5.069,0.522l-15.903,-0l-0,-34.391l15.157,0c4.34,0 7.596,0.82 9.766,2.46c2.17,1.64 3.255,4.001 3.255,7.082c-0,1.226 -0.124,2.295 -0.373,3.206c-0.248,0.911 -0.596,1.681 -1.043,2.311c-0.448,0.629 -0.978,1.134 -1.591,1.515c-0.613,0.381 -1.267,0.688 -1.963,0.92Zm-14.263,-9.791l0,6.063l6.759,0c0.994,0 1.855,-0.19 2.584,-0.571c0.729,-0.381 1.094,-1.151 1.094,-2.311c-0,-2.12 -1.409,-3.181 -4.225,-3.181l-6.212,0Zm0,18.985l6.958,-0c1.391,-0 2.46,-0.224 3.205,-0.671c0.746,-0.448 1.118,-1.234 1.118,-2.361c0,-0.828 -0.29,-1.54 -0.869,-2.137c-0.58,-0.596 -1.682,-0.894 -3.305,-0.894l-7.107,-0l0,6.063Z" style="fill:#f17400;fill-rule:nonzero;"/><path d="M164.109,0.596l9.641,0l13.617,34.391l-9.443,-0l-2.286,-6.461l-13.418,0l-2.286,6.461l-9.442,-0l13.617,-34.391Zm0.944,20.078l7.753,-0l-3.877,-10.884l-3.876,10.884Z" style="fill:#f17400;fill-rule:nonzero;"/><path d="M187.963,17.792l0,-0.05c0,-2.584 0.406,-4.962 1.218,-7.132c0.811,-2.17 1.979,-4.042 3.503,-5.615c1.524,-1.574 3.388,-2.8 5.591,-3.678c2.204,-0.878 4.697,-1.317 7.48,-1.317l0.049,-0c2.386,-0 4.647,0.348 6.784,1.044c2.137,0.695 4.017,1.805 5.641,3.329l-4.92,6.709c-1.094,-0.96 -2.262,-1.656 -3.504,-2.087c-1.242,-0.431 -2.576,-0.646 -4.001,-0.646l-0.049,0c-1.392,0 -2.634,0.249 -3.728,0.746c-1.093,0.497 -2.021,1.167 -2.783,2.012c-0.762,0.845 -1.341,1.839 -1.739,2.982c-0.398,1.143 -0.596,2.361 -0.596,3.653l-0,0.05c0.033,1.325 0.248,2.567 0.646,3.727c0.397,1.159 0.977,2.162 1.739,3.006c0.762,0.845 1.681,1.508 2.758,1.988c1.077,0.481 2.311,0.721 3.703,0.721l0.049,-0c1.657,-0 3.073,-0.24 4.249,-0.721c1.177,-0.48 2.262,-1.151 3.256,-2.012l4.92,6.709c-1.524,1.424 -3.322,2.509 -5.392,3.255c-2.071,0.745 -4.415,1.118 -7.033,1.118l-0.049,0c-2.783,0 -5.276,-0.439 -7.48,-1.317c-2.203,-0.878 -4.067,-2.112 -5.591,-3.702c-1.524,-1.591 -2.692,-3.471 -3.503,-5.641c-0.812,-2.17 -1.218,-4.547 -1.218,-7.131Z" style="fill:#f17400;fill-rule:nonzero;"/></g></svg>