<?xml version="1.0" encoding="UTF-8" standalone="no"?>
<!DOCTYPE svg PUBLIC "-//W3C//DTD SVG 1.1//EN" "http://www.w3.org/Graphics/SVG/1.1/DTD/svg11.dtd">
<svg width="100%" height="100%" viewBox="0 0 114 108" version="1.1" xmlns="http://www.w3.org/2000/svg" xmlns:xlink="http://www.w3.org/1999/xlink" xml:space="preserve" xmlns:serif="http://www.serif.com/" style="fill-rule:evenodd;clip-rule:evenodd;stroke-linecap:round;stroke-linejoin:round;stroke-miterlimit:1.5;">
    <g transform="matrix(1,0,0,1,-1223.19,-723.757)">
        <g transform="matrix(1,0,0,1,-6.25442,12.122)">
            <g transform="matrix(1,0,0,1,2.55448,8.21559)">
                <path d="M1256.1,708.951C1259.23,711.363 1262.18,713.759 1264.71,716.802C1266.51,718.958 1267.85,721.464 1269.65,723.624C1270.36,724.472 1271.62,724.588 1272.47,723.882C1273.32,723.176 1273.43,721.914 1272.73,721.066C1270.93,718.906 1269.58,716.4 1267.79,714.243C1265.06,710.971 1261.91,708.377 1258.54,705.784C1257.67,705.11 1256.41,705.272 1255.74,706.146C1255.06,707.02 1255.23,708.277 1256.1,708.951Z" style="fill:rgb(240,114,0);"/>
            </g>
            <g transform="matrix(1,0,0,1,2.55448,8.21559)">
                <path d="M1254.73,724.166C1257.05,724.913 1259.34,725.928 1261.56,726.919C1262.56,727.369 1263.75,726.916 1264.2,725.908C1264.65,724.9 1264.19,723.717 1263.19,723.267C1260.84,722.217 1258.41,721.15 1255.96,720.359C1254.91,720.02 1253.78,720.598 1253.44,721.649C1253.1,722.699 1253.68,723.827 1254.73,724.166Z" style="fill:rgb(240,114,0);"/>
            </g>
            <g transform="matrix(1,0,0,1,2.55448,8.21559)">
                <path d="M1276.85,704.913C1275.95,708.366 1275.49,711.884 1275.55,715.457C1275.57,716.56 1276.49,717.44 1277.59,717.421C1278.69,717.401 1279.57,716.489 1279.55,715.385C1279.5,712.18 1279.91,709.023 1280.72,705.925C1281,704.858 1280.36,703.764 1279.29,703.484C1278.23,703.205 1277.13,703.845 1276.85,704.913Z" style="fill:rgb(240,114,0);"/>
            </g>
            <g transform="matrix(1,0,0,1,2.55448,8.21559)">
                <path d="M1285.13,721.409C1286.62,719.882 1288.16,718.363 1289.88,717.108C1290.77,716.458 1290.97,715.206 1290.32,714.314C1289.67,713.422 1288.42,713.225 1287.52,713.875C1285.62,715.264 1283.9,716.935 1282.26,718.625C1281.5,719.417 1281.51,720.684 1282.31,721.453C1283.1,722.221 1284.37,722.202 1285.13,721.409Z" style="fill:rgb(240,114,0);"/>
            </g>
            <g transform="matrix(-0.8157,-0.231274,-0.231274,0.8157,2530.95,442.602)">
                <g transform="matrix(0.513284,-5.55112e-17,5.55112e-17,0.449662,684.869,451.29)">
                    <path d="M1325.63,733.022C1325.63,725.835 1320.52,720 1314.22,720L1291.41,720C1285.11,720 1280,725.835 1280,733.022L1280,781.464C1280,788.651 1285.11,794.486 1291.41,794.486L1314.22,794.486C1320.52,794.486 1325.63,788.651 1325.63,781.464L1325.63,733.022Z" style="fill:none;stroke:rgb(240,114,0);stroke-width:9.78px;"/>
                </g>
                <g transform="matrix(1,0,0,1,27.0405,33.5179)">
                    <path d="M1326.28,733.005L1280.65,733.005L1280.65,780.863C1280.65,787.159 1285.76,792.27 1292.05,792.27L1314.87,792.27C1321.16,792.27 1326.28,787.159 1326.28,780.863L1326.28,733.005Z" style="fill:rgb(14,14,16);stroke:rgb(240,114,0);stroke-width:4.72px;"/>
                </g>
                <g transform="matrix(0.124175,-3.13586e-17,-3.67755e-17,0.436657,1168.72,470.675)">
                    <path d="M1325.63,726.488C1325.63,722.907 1315.41,720 1302.82,720C1290.22,720 1280,722.907 1280,726.488L1280,787.998C1280,791.579 1290.22,794.486 1302.82,794.486C1315.41,794.486 1325.63,791.579 1325.63,787.998L1325.63,726.488Z" style="fill:rgb(240,114,0);"/>
                </g>
                <g transform="matrix(0.124175,-3.13586e-17,-3.67755e-17,0.436657,1158.36,470.675)">
                    <path d="M1325.63,726.488C1325.63,722.907 1315.41,720 1302.82,720C1290.22,720 1280,722.907 1280,726.488L1280,787.998C1280,791.579 1290.22,794.486 1302.82,794.486C1315.41,794.486 1325.63,791.579 1325.63,787.998L1325.63,726.488Z" style="fill:rgb(240,114,0);"/>
                </g>
                <g transform="matrix(0.124175,-3.13586e-17,-3.67755e-17,0.436657,1179.12,470.675)">
                    <path d="M1325.63,726.488C1325.63,722.907 1315.41,720 1302.82,720C1290.22,720 1280,722.907 1280,726.488L1280,787.998C1280,791.579 1290.22,794.486 1302.82,794.486C1315.41,794.486 1325.63,791.579 1325.63,787.998L1325.63,726.488Z" style="fill:rgb(240,114,0);"/>
                </g>
                <g transform="matrix(1.02809,0,0,1.02809,-9.1614,13.6674)">
                    <path d="M1288.78,723.672C1289.64,717.673 1294.81,713.057 1301.05,713.057C1306.9,713.057 1311.8,717.114 1313.11,722.562C1314.68,720.98 1316.87,720 1319.27,720C1324.08,720 1327.98,723.902 1327.98,728.707C1327.98,733.513 1324.08,737.415 1319.27,737.415C1318.15,737.415 1317.07,737.2 1316.08,736.81C1316.33,737.46 1316.46,738.166 1316.46,738.902C1316.46,742.157 1313.82,744.8 1310.57,744.8C1307.31,744.8 1304.67,742.157 1304.67,738.902C1304.67,738.325 1304.75,737.767 1304.91,737.24C1303.69,737.638 1302.39,737.853 1301.05,737.853C1298.86,737.853 1296.8,737.283 1295.01,736.284C1293.66,740.084 1290.03,742.809 1285.77,742.809C1280.36,742.809 1275.96,738.416 1275.96,733.005C1275.96,727.594 1280.36,723.201 1285.77,723.201C1286.82,723.201 1287.83,723.366 1288.78,723.672Z" style="fill:rgb(14,14,16);stroke:rgb(240,114,0);stroke-width:4.59px;"/>
                </g>
            </g>
            <g transform="matrix(0.962077,-0.272776,0.272776,0.962077,-191.632,382.294)">
                <g transform="matrix(0.513284,-5.55112e-17,5.55112e-17,0.449662,684.869,451.29)">
                    <path d="M1325.63,733.022C1325.63,725.835 1320.52,720 1314.22,720L1291.41,720C1285.11,720 1280,725.835 1280,733.022L1280,781.464C1280,788.651 1285.11,794.486 1291.41,794.486L1314.22,794.486C1320.52,794.486 1325.63,788.651 1325.63,781.464L1325.63,733.022Z" style="fill:none;stroke:rgb(240,114,0);stroke-width:8.29px;"/>
                </g>
                <g transform="matrix(1,0,0,1,27.0405,33.5179)">
                    <path d="M1326.28,733.005L1280.65,733.005L1280.65,780.863C1280.65,787.159 1285.76,792.27 1292.05,792.27L1314.87,792.27C1321.16,792.27 1326.28,787.159 1326.28,780.863L1326.28,733.005Z" style="fill:rgb(14,14,16);stroke:rgb(240,114,0);stroke-width:4px;"/>
                </g>
                <g transform="matrix(0.124175,-3.13586e-17,-3.67755e-17,0.436657,1168.72,470.675)">
                    <path d="M1325.63,726.488C1325.63,722.907 1315.41,720 1302.82,720C1290.22,720 1280,722.907 1280,726.488L1280,787.998C1280,791.579 1290.22,794.486 1302.82,794.486C1315.41,794.486 1325.63,791.579 1325.63,787.998L1325.63,726.488Z" style="fill:rgb(240,114,0);"/>
                </g>
                <g transform="matrix(0.124175,-3.13586e-17,-3.67755e-17,0.436657,1158.36,470.675)">
                    <path d="M1325.63,726.488C1325.63,722.907 1315.41,720 1302.82,720C1290.22,720 1280,722.907 1280,726.488L1280,787.998C1280,791.579 1290.22,794.486 1302.82,794.486C1315.41,794.486 1325.63,791.579 1325.63,787.998L1325.63,726.488Z" style="fill:rgb(240,114,0);"/>
                </g>
                <g transform="matrix(0.124175,-3.13586e-17,-3.67755e-17,0.436657,1179.12,470.675)">
                    <path d="M1325.63,726.488C1325.63,722.907 1315.41,720 1302.82,720C1290.22,720 1280,722.907 1280,726.488L1280,787.998C1280,791.579 1290.22,794.486 1302.82,794.486C1315.41,794.486 1325.63,791.579 1325.63,787.998L1325.63,726.488Z" style="fill:rgb(240,114,0);"/>
                </g>
                <g transform="matrix(1.02809,0,0,1.02809,-9.1614,13.6674)">
                    <path d="M1288.78,723.672C1289.64,717.673 1294.81,713.057 1301.05,713.057C1306.9,713.057 1311.8,717.114 1313.11,722.562C1314.68,720.98 1316.87,720 1319.27,720C1324.08,720 1327.98,723.902 1327.98,728.707C1327.98,733.513 1324.08,737.415 1319.27,737.415C1318.15,737.415 1317.07,737.2 1316.08,736.81C1316.33,737.46 1316.46,738.166 1316.46,738.902C1316.46,742.157 1313.82,744.8 1310.57,744.8C1307.31,744.8 1304.67,742.157 1304.67,738.902C1304.67,738.325 1304.75,737.767 1304.91,737.24C1303.69,737.638 1302.39,737.853 1301.05,737.853C1298.86,737.853 1296.8,737.283 1295.01,736.284C1293.66,740.084 1290.03,742.809 1285.77,742.809C1280.36,742.809 1275.96,738.416 1275.96,733.005C1275.96,727.594 1280.36,723.201 1285.77,723.201C1286.82,723.201 1287.83,723.366 1288.78,723.672Z" style="fill:rgb(14,14,16);stroke:rgb(240,114,0);stroke-width:3.89px;"/>
                </g>
            </g>
        </g>
    </g>
</svg>
