<?xml version="1.0" encoding="UTF-8" standalone="no"?>
<!DOCTYPE svg PUBLIC "-//W3C//DTD SVG 1.1//EN" "http://www.w3.org/Graphics/SVG/1.1/DTD/svg11.dtd">
<svg width="100%" height="100%" viewBox="0 0 136 56" version="1.1" xmlns="http://www.w3.org/2000/svg" xmlns:xlink="http://www.w3.org/1999/xlink" xml:space="preserve" xmlns:serif="http://www.serif.com/" style="fill-rule:evenodd;clip-rule:evenodd;stroke-linecap:round;stroke-linejoin:round;stroke-miterlimit:1.5;">
    <g transform="matrix(1,0,0,1,-1643.58,-680.036)">
        <g transform="matrix(1.0861,0,0,1.0861,108.289,49.7162)">
            <g transform="matrix(0.739837,0,0,0.584744,374.56,118.277)">
                <path d="M1571.37,794.696C1571.37,793.727 1570.75,792.941 1569.98,792.941L1407.93,792.941C1407.16,792.941 1406.54,793.727 1406.54,794.696L1406.54,873.799C1406.54,874.768 1407.16,875.554 1407.93,875.554L1569.98,875.554C1570.75,875.554 1571.37,874.768 1571.37,873.799L1571.37,794.696Z" style="fill:rgb(14,14,16);stroke:rgb(240,114,0);stroke-width:4.78px;"/>
            </g>
            <g transform="matrix(1.03782e-16,1.67777,-1.69489,1.02734e-16,2889.5,-1806.96)">
                <path d="M1428.83,797.919C1428.83,800.667 1426.6,802.897 1423.86,802.897L1423.86,798.531C1423.86,798.193 1424.13,797.919 1424.47,797.919L1428.83,797.919Z" style="fill:rgb(240,114,0);stroke:rgb(240,114,0);stroke-width:1.42px;"/>
            </g>
            <g transform="matrix(-1.69489,2.05468e-16,-2.07564e-16,-1.67777,3950.4,1968.98)">
                <path d="M1428.83,797.919C1428.83,800.667 1426.6,802.897 1423.86,802.897L1423.86,798.531C1423.86,798.193 1424.13,797.919 1424.47,797.919L1428.83,797.919Z" style="fill:rgb(240,114,0);stroke:rgb(240,114,0);stroke-width:1.42px;"/>
            </g>
            <g transform="matrix(1.03782e-16,-1.67777,1.69489,1.02734e-16,62.7854,3019.16)">
                <path d="M1428.83,797.919C1428.83,800.667 1426.6,802.897 1423.86,802.897L1423.86,798.531C1423.86,798.193 1424.13,797.919 1424.47,797.919L1428.83,797.919Z" style="fill:rgb(240,114,0);stroke:rgb(240,114,0);stroke-width:1.42px;"/>
            </g>
            <g transform="matrix(1.69489,-1.95148e-32,1.97139e-32,1.67777,-998.109,-756.783)">
                <path d="M1428.83,797.919C1428.83,800.667 1426.6,802.897 1423.86,802.897L1423.86,798.531C1423.86,798.193 1424.13,797.919 1424.47,797.919L1428.83,797.919Z" style="fill:rgb(240,114,0);stroke:rgb(240,114,0);stroke-width:1.42px;"/>
            </g>
            <g transform="matrix(0.790046,0,0,0.762773,431.781,-49.5264)">
                <circle cx="1321.9" cy="859.528" r="26.616" style="fill:rgb(240,114,0);stroke:rgb(240,114,0);stroke-width:3.88px;"/>
            </g>
            <g transform="matrix(0.133639,0,0,0.129025,1260.99,495.197)">
                <circle cx="1321.9" cy="859.528" r="26.616" style="fill:rgb(240,114,0);stroke:rgb(240,114,0);stroke-width:22.95px;"/>
            </g>
            <g transform="matrix(0.133639,0,0,0.129025,1338.02,495.197)">
                <circle cx="1321.9" cy="859.528" r="26.616" style="fill:rgb(240,114,0);stroke:rgb(240,114,0);stroke-width:22.95px;"/>
            </g>
            <g transform="matrix(3.31597,0,0,3.17217,-2910.52,-2094.28)">
                <path d="M1322.29,847.19L1322.29,846.615L1322.55,846.615L1322.55,847.155C1322.71,847.139 1322.84,847.131 1322.94,847.131C1323.03,847.131 1323.17,847.139 1323.36,847.155L1323.36,846.615L1323.62,846.615L1323.62,847.178C1324.18,847.264 1324.6,847.449 1324.88,847.732C1325.15,848.015 1325.29,848.319 1325.29,848.643C1325.29,848.85 1325.23,849.012 1325.11,849.129C1324.99,849.246 1324.86,849.305 1324.71,849.305C1324.56,849.305 1324.43,849.249 1324.33,849.138C1324.22,849.027 1324.17,848.881 1324.17,848.701C1324.17,848.444 1324.29,848.262 1324.53,848.157C1324.64,848.102 1324.7,848.055 1324.7,848.016C1324.7,847.953 1324.61,847.858 1324.43,847.729C1324.25,847.6 1323.98,847.508 1323.62,847.453L1323.62,850.348C1324.78,850.832 1325.36,851.569 1325.36,852.557C1325.36,853.002 1325.21,853.424 1324.93,853.823C1324.64,854.221 1324.2,854.502 1323.62,854.666L1323.62,855.926L1323.36,855.926L1323.36,854.737C1323.06,854.787 1322.79,854.805 1322.55,854.789L1322.55,855.926L1322.29,855.926L1322.29,854.76C1321.64,854.647 1321.17,854.416 1320.87,854.069C1320.58,853.721 1320.43,853.364 1320.43,852.996C1320.43,852.809 1320.49,852.636 1320.61,852.478C1320.73,852.32 1320.88,852.24 1321.08,852.24C1321.23,852.24 1321.36,852.298 1321.49,852.413C1321.61,852.529 1321.67,852.676 1321.67,852.856C1321.67,853.035 1321.62,853.18 1321.51,853.289C1321.4,853.399 1321.27,853.453 1321.12,853.453C1321.12,853.453 1321.09,853.448 1321.04,853.436C1320.99,853.424 1320.96,853.418 1320.95,853.418C1320.91,853.418 1320.88,853.449 1320.88,853.512C1320.88,853.625 1321,853.795 1321.25,854.022C1321.49,854.248 1321.84,854.395 1322.29,854.461L1322.29,851.016C1321.19,850.606 1320.64,849.955 1320.64,849.065C1320.64,848.112 1321.19,847.487 1322.29,847.19ZM1322.55,847.453L1322.55,849.926C1322.71,849.996 1322.98,850.096 1323.36,850.225L1323.36,847.442L1322.97,847.418C1322.91,847.418 1322.83,847.424 1322.73,847.436C1322.63,847.448 1322.57,847.453 1322.55,847.453ZM1322.29,849.797L1322.29,847.512C1321.61,847.731 1321.27,848.115 1321.27,848.666C1321.27,849.139 1321.61,849.516 1322.29,849.797ZM1323.36,854.438L1323.36,851.508L1322.55,851.162L1322.55,854.485C1322.63,854.492 1322.7,854.496 1322.76,854.496C1322.86,854.496 1323.06,854.477 1323.36,854.438ZM1323.62,851.619L1323.62,854.356C1324.37,854.102 1324.75,853.649 1324.75,852.996C1324.75,852.387 1324.37,851.928 1323.62,851.619Z" style="fill:rgb(14,14,16);fill-rule:nonzero;stroke:rgb(14,14,16);stroke-width:0.4px;stroke-miterlimit:2;"/>
            </g>
        </g>
    </g>
</svg>
