<?xml version="1.0" encoding="UTF-8" standalone="no"?><!DOCTYPE svg PUBLIC "-//W3C//DTD SVG 1.1//EN" "http://www.w3.org/Graphics/SVG/1.1/DTD/svg11.dtd"><svg width="100%" height="100%" viewBox="0 0 244 456" version="1.1" xmlns="http://www.w3.org/2000/svg" xmlns:xlink="http://www.w3.org/1999/xlink" xml:space="preserve" xmlns:serif="http://www.serif.com/" style="fill-rule:evenodd;clip-rule:evenodd;stroke-linecap:round;stroke-linejoin:round;stroke-miterlimit:1.5;"><g><g><path d="M237.194,63.986c0,-31.865 -25.87,-57.736 -57.736,-57.736l-115.472,0c-31.865,0 -57.736,25.871 -57.736,57.736l0,327.126c0,31.866 25.871,57.736 57.736,57.736l115.472,0c31.866,0 57.736,-25.87 57.736,-57.736l0,-327.126Z" style="fill:#0e0e10;stroke:#f07200;stroke-width:12.5px;"/><path d="M209.748,379.834c-0,-12.132 -9.85,-21.982 -21.982,-21.982l-133.367,0c-12.132,0 -21.982,9.85 -21.982,21.982c0,12.132 9.85,21.981 21.982,21.981l133.367,0c12.132,0 21.982,-9.849 21.982,-21.981Z" style="fill:#f07200;"/><rect x="33.697" y="133.31" width="176.051" height="176.051" style="fill:#0e0e10;"/><g><g><rect x="118.201" y="147.395" width="7.253" height="7.253" style="fill:#f07200;"/></g><g><rect x="132.285" y="147.395" width="7.253" height="7.253" style="fill:#f07200;"/></g><g><rect x="104.117" y="154.437" width="7.253" height="7.253" style="fill:#f07200;"/></g><g><rect x="111.159" y="154.437" width="7.253" height="7.253" style="fill:#f07200;"/></g><g><rect x="118.201" y="154.437" width="7.253" height="7.253" style="fill:#f07200;"/></g><g><rect x="132.285" y="154.437" width="7.253" height="7.253" style="fill:#f07200;"/></g><g><rect x="118.201" y="161.479" width="7.253" height="7.253" style="fill:#f07200;"/></g><g><rect x="132.285" y="161.479" width="7.253" height="7.253" style="fill:#f07200;"/></g><g><rect x="104.117" y="168.521" width="7.253" height="7.253" style="fill:#f07200;"/></g><g><rect x="111.159" y="168.521" width="7.253" height="7.253" style="fill:#f07200;"/></g><g><rect x="132.285" y="168.521" width="7.253" height="7.253" style="fill:#f07200;"/></g><g><rect x="111.159" y="175.563" width="7.253" height="7.253" style="fill:#f07200;"/></g><g><rect x="125.243" y="175.563" width="7.253" height="7.253" style="fill:#f07200;"/></g><g><rect x="104.117" y="182.605" width="7.253" height="7.253" style="fill:#f07200;"/></g><g><rect x="125.243" y="182.605" width="7.253" height="7.253" style="fill:#f07200;"/></g><g><rect x="132.285" y="182.605" width="7.253" height="7.253" style="fill:#f07200;"/></g><g><rect x="104.117" y="189.647" width="7.253" height="7.253" style="fill:#f07200;"/></g><g><rect x="118.201" y="189.647" width="7.253" height="7.253" style="fill:#f07200;"/></g><g><rect x="132.285" y="189.647" width="7.253" height="7.253" style="fill:#f07200;"/></g><g><rect x="111.159" y="196.689" width="7.253" height="7.253" style="fill:#f07200;"/></g><g><rect x="132.285" y="196.689" width="7.253" height="7.253" style="fill:#f07200;"/></g><g><rect x="47.781" y="203.731" width="7.253" height="7.253" style="fill:#f07200;"/></g><g><rect x="54.823" y="203.731" width="7.253" height="7.253" style="fill:#f07200;"/></g><g><rect x="61.865" y="203.731" width="7.253" height="7.253" style="fill:#f07200;"/></g><g><rect x="68.907" y="203.731" width="7.253" height="7.253" style="fill:#f07200;"/></g><g><rect x="75.949" y="203.731" width="7.253" height="7.253" style="fill:#f07200;"/></g><g><rect x="90.033" y="203.731" width="7.253" height="7.253" style="fill:#f07200;"/></g><g><rect x="97.075" y="203.731" width="7.253" height="7.253" style="fill:#f07200;"/></g><g><rect x="104.117" y="203.731" width="7.253" height="7.253" style="fill:#f07200;"/></g><g><rect x="132.285" y="203.731" width="7.253" height="7.253" style="fill:#f07200;"/></g><g><rect x="139.327" y="203.731" width="7.253" height="7.253" style="fill:#f07200;"/></g><g><rect x="153.411" y="203.731" width="7.253" height="7.253" style="fill:#f07200;"/></g><g><rect x="167.495" y="203.731" width="7.253" height="7.253" style="fill:#f07200;"/></g><g><rect x="181.58" y="203.731" width="7.253" height="7.253" style="fill:#f07200;"/></g><g><rect x="47.781" y="210.773" width="7.253" height="7.253" style="fill:#f07200;"/></g><g><rect x="54.823" y="210.773" width="7.253" height="7.253" style="fill:#f07200;"/></g><g><rect x="61.865" y="210.773" width="7.253" height="7.253" style="fill:#f07200;"/></g><g><rect x="68.907" y="210.773" width="7.253" height="7.253" style="fill:#f07200;"/></g><g><rect x="97.075" y="210.773" width="7.253" height="7.253" style="fill:#f07200;"/></g><g><rect x="104.117" y="210.773" width="7.253" height="7.253" style="fill:#f07200;"/></g><g><rect x="111.159" y="210.773" width="7.253" height="7.253" style="fill:#f07200;"/></g><g><rect x="125.243" y="210.773" width="7.253" height="7.253" style="fill:#f07200;"/></g><g><rect x="146.369" y="210.773" width="7.253" height="7.253" style="fill:#f07200;"/></g><g><rect x="153.411" y="210.773" width="7.253" height="7.253" style="fill:#f07200;"/></g><g><rect x="160.453" y="210.773" width="7.253" height="7.253" style="fill:#f07200;"/></g><g><rect x="167.495" y="210.773" width="7.253" height="7.253" style="fill:#f07200;"/></g><g><rect x="174.537" y="210.773" width="7.253" height="7.253" style="fill:#f07200;"/></g><g><rect x="181.58" y="210.773" width="7.253" height="7.253" style="fill:#f07200;"/></g><g><rect x="188.622" y="210.773" width="7.253" height="7.253" style="fill:#f07200;"/></g><g><rect x="47.781" y="217.815" width="7.253" height="7.253" style="fill:#f07200;"/></g><g><rect x="54.823" y="217.815" width="7.253" height="7.253" style="fill:#f07200;"/></g><g><rect x="61.865" y="217.815" width="7.253" height="7.253" style="fill:#f07200;"/></g><g><rect x="90.033" y="217.815" width="7.253" height="7.253" style="fill:#f07200;"/></g><g><rect x="97.075" y="217.815" width="7.253" height="7.253" style="fill:#f07200;"/></g><g><rect x="111.159" y="217.815" width="7.253" height="7.253" style="fill:#f07200;"/></g><g><rect x="118.201" y="217.815" width="7.253" height="7.253" style="fill:#f07200;"/></g><g><rect x="125.243" y="217.815" width="7.253" height="7.253" style="fill:#f07200;"/></g><g><rect x="132.285" y="217.815" width="7.253" height="7.253" style="fill:#f07200;"/></g><g><rect x="139.327" y="217.815" width="7.253" height="7.253" style="fill:#f07200;"/></g><g><rect x="146.369" y="217.815" width="7.253" height="7.253" style="fill:#f07200;"/></g><g><rect x="174.537" y="217.815" width="7.253" height="7.253" style="fill:#f07200;"/></g><g><rect x="181.58" y="217.815" width="7.253" height="7.253" style="fill:#f07200;"/></g><g><rect x="75.949" y="224.857" width="7.253" height="7.253" style="fill:#f07200;"/></g><g><rect x="82.991" y="224.857" width="7.253" height="7.253" style="fill:#f07200;"/></g><g><rect x="118.201" y="224.857" width="7.253" height="7.253" style="fill:#f07200;"/></g><g><rect x="125.243" y="224.857" width="7.253" height="7.253" style="fill:#f07200;"/></g><g><rect x="132.285" y="224.857" width="7.253" height="7.253" style="fill:#f07200;"/></g><g><rect x="139.327" y="224.857" width="7.253" height="7.253" style="fill:#f07200;"/></g><g><rect x="160.453" y="224.857" width="7.253" height="7.253" style="fill:#f07200;"/></g><g><rect x="167.495" y="224.857" width="7.253" height="7.253" style="fill:#f07200;"/></g><g><rect x="174.537" y="224.857" width="7.253" height="7.253" style="fill:#f07200;"/></g><g><rect x="47.781" y="231.899" width="7.253" height="7.253" style="fill:#f07200;"/></g><g><rect x="54.823" y="231.899" width="7.253" height="7.253" style="fill:#f07200;"/></g><g><rect x="61.865" y="231.899" width="7.253" height="7.253" style="fill:#f07200;"/></g><g><rect x="68.907" y="231.899" width="7.253" height="7.253" style="fill:#f07200;"/></g><g><rect x="82.991" y="231.899" width="7.253" height="7.253" style="fill:#f07200;"/></g><g><rect x="90.033" y="231.899" width="7.253" height="7.253" style="fill:#f07200;"/></g><g><rect x="97.075" y="231.899" width="7.253" height="7.253" style="fill:#f07200;"/></g><g><rect x="132.285" y="231.899" width="7.253" height="7.253" style="fill:#f07200;"/></g><g><rect x="146.369" y="231.899" width="7.253" height="7.253" style="fill:#f07200;"/></g><g><rect x="160.453" y="231.899" width="7.253" height="7.253" style="fill:#f07200;"/></g><g><rect x="167.495" y="231.899" width="7.253" height="7.253" style="fill:#f07200;"/></g><g><rect x="188.622" y="231.899" width="7.253" height="7.253" style="fill:#f07200;"/></g><g><rect x="104.117" y="238.941" width="7.253" height="7.253" style="fill:#f07200;"/></g><g><rect x="118.201" y="238.941" width="7.253" height="7.253" style="fill:#f07200;"/></g><g><rect x="146.369" y="238.941" width="7.253" height="7.253" style="fill:#f07200;"/></g><g><rect x="153.411" y="238.941" width="7.253" height="7.253" style="fill:#f07200;"/></g><g><rect x="160.453" y="238.941" width="7.253" height="7.253" style="fill:#f07200;"/></g><g><rect x="167.495" y="238.941" width="7.253" height="7.253" style="fill:#f07200;"/></g><g><rect x="174.537" y="238.941" width="7.253" height="7.253" style="fill:#f07200;"/></g><g><rect x="188.622" y="238.941" width="7.253" height="7.253" style="fill:#f07200;"/></g><g><rect x="104.117" y="245.983" width="7.253" height="7.253" style="fill:#f07200;"/></g><g><rect x="118.201" y="245.983" width="7.253" height="7.253" style="fill:#f07200;"/></g><g><rect x="125.243" y="245.983" width="7.253" height="7.253" style="fill:#f07200;"/></g><g><rect x="132.285" y="245.983" width="7.253" height="7.253" style="fill:#f07200;"/></g><g><rect x="139.327" y="245.983" width="7.253" height="7.253" style="fill:#f07200;"/></g><g><rect x="146.369" y="245.983" width="7.253" height="7.253" style="fill:#f07200;"/></g><g><rect x="153.411" y="245.983" width="7.253" height="7.253" style="fill:#f07200;"/></g><g><rect x="174.537" y="245.983" width="7.253" height="7.253" style="fill:#f07200;"/></g><g><rect x="181.58" y="245.983" width="7.253" height="7.253" style="fill:#f07200;"/></g><g><rect x="118.201" y="253.025" width="7.253" height="7.253" style="fill:#f07200;"/></g><g><rect x="139.327" y="253.025" width="7.253" height="7.253" style="fill:#f07200;"/></g><g><rect x="160.453" y="253.025" width="7.253" height="7.253" style="fill:#f07200;"/></g><g><rect x="167.495" y="253.025" width="7.253" height="7.253" style="fill:#f07200;"/></g><g><rect x="174.537" y="253.025" width="7.253" height="7.253" style="fill:#f07200;"/></g><g><rect x="181.58" y="253.025" width="7.253" height="7.253" style="fill:#f07200;"/></g><g><rect x="188.622" y="253.025" width="7.253" height="7.253" style="fill:#f07200;"/></g><g><rect x="104.117" y="260.067" width="7.253" height="7.253" style="fill:#f07200;"/></g><g><rect x="118.201" y="260.067" width="7.253" height="7.253" style="fill:#f07200;"/></g><g><rect x="125.243" y="260.067" width="7.253" height="7.253" style="fill:#f07200;"/></g><g><rect x="146.369" y="260.067" width="7.253" height="7.253" style="fill:#f07200;"/></g><g><rect x="160.453" y="260.067" width="7.253" height="7.253" style="fill:#f07200;"/></g><g><rect x="167.495" y="260.067" width="7.253" height="7.253" style="fill:#f07200;"/></g><g><rect x="181.58" y="260.067" width="7.253" height="7.253" style="fill:#f07200;"/></g><g><rect x="188.622" y="260.067" width="7.253" height="7.253" style="fill:#f07200;"/></g><g><rect x="104.117" y="267.109" width="7.253" height="7.253" style="fill:#f07200;"/></g><g><rect x="153.411" y="267.109" width="7.253" height="7.253" style="fill:#f07200;"/></g><g><rect x="160.453" y="267.109" width="7.253" height="7.253" style="fill:#f07200;"/></g><g><rect x="174.537" y="267.109" width="7.253" height="7.253" style="fill:#f07200;"/></g><g><rect x="104.117" y="274.151" width="7.253" height="7.253" style="fill:#f07200;"/></g><g><rect x="132.285" y="274.151" width="7.253" height="7.253" style="fill:#f07200;"/></g><g><rect x="146.369" y="274.151" width="7.253" height="7.253" style="fill:#f07200;"/></g><g><rect x="153.411" y="274.151" width="7.253" height="7.253" style="fill:#f07200;"/></g><g><rect x="174.537" y="274.151" width="7.253" height="7.253" style="fill:#f07200;"/></g><g><rect x="104.117" y="281.193" width="7.253" height="7.253" style="fill:#f07200;"/></g><g><rect x="111.159" y="281.193" width="7.253" height="7.253" style="fill:#f07200;"/></g><g><rect x="118.201" y="281.193" width="7.253" height="7.253" style="fill:#f07200;"/></g><g><rect x="125.243" y="281.193" width="7.253" height="7.253" style="fill:#f07200;"/></g><g><rect x="139.327" y="281.193" width="7.253" height="7.253" style="fill:#f07200;"/></g><g><rect x="153.411" y="281.193" width="7.253" height="7.253" style="fill:#f07200;"/></g><g><rect x="160.453" y="281.193" width="7.253" height="7.253" style="fill:#f07200;"/></g><g><rect x="174.537" y="281.193" width="7.253" height="7.253" style="fill:#f07200;"/></g><g><rect x="104.117" y="288.235" width="7.253" height="7.253" style="fill:#f07200;"/></g><g><rect x="118.201" y="288.235" width="7.253" height="7.253" style="fill:#f07200;"/></g><g><rect x="146.369" y="288.235" width="7.253" height="7.253" style="fill:#f07200;"/></g><g><rect x="153.411" y="288.235" width="7.253" height="7.253" style="fill:#f07200;"/></g><g><rect x="160.453" y="288.235" width="7.253" height="7.253" style="fill:#f07200;"/></g><g><rect x="167.495" y="288.235" width="7.253" height="7.253" style="fill:#f07200;"/></g><g><rect x="181.58" y="288.235" width="7.253" height="7.253" style="fill:#f07200;"/></g><g><g><path d="M47.781,147.395l-0,49.294l49.294,-0l0,-49.294l-49.294,-0Zm42.252,42.252l-35.21,-0l-0,-35.21l35.21,-0l0,35.21Z" style="fill:#f07200;fill-rule:nonzero;"/></g></g><g><g><path d="M146.369,147.395l0,49.294l49.295,-0l-0,-49.294l-49.295,-0Zm42.253,42.252l-35.211,-0l0,-35.21l35.211,-0l-0,35.21Z" style="fill:#f07200;fill-rule:nonzero;"/></g></g><g><g><path d="M47.781,245.983l-0,49.294l49.294,0l0,-49.294l-49.294,0Zm42.252,42.252l-35.21,0l-0,-35.21l35.21,0l0,35.21Z" style="fill:#f07200;fill-rule:nonzero;"/></g></g><g><g><rect x="61.865" y="161.479" width="21.126" height="21.126" style="fill:#f07200;"/></g></g><g><g><rect x="160.453" y="161.479" width="21.126" height="21.126" style="fill:#f07200;"/></g></g><g><g><rect x="61.865" y="260.067" width="21.126" height="21.126" style="fill:#f07200;"/></g></g></g></g><g transform="matrix(1,0,0,0.956635,0,-16.9429)"><text x="35.611px" y="99.665px" style="font-family:'KickbackBold', 'Kickback';font-weight:800;font-size:35.653px;fill:#f07200;">K<tspan x="59.249px 68.304px 89.34px 112.978px 135.225px 160.182px 181.217px " y="99.665px 99.665px 99.665px 99.665px 99.665px 99.665px 99.665px ">ICKBACK</tspan></text></g></g></svg>