<?xml version="1.0" encoding="UTF-8" standalone="no"?>
<!DOCTYPE svg PUBLIC "-//W3C//DTD SVG 1.1//EN" "http://www.w3.org/Graphics/SVG/1.1/DTD/svg11.dtd">
<svg width="100%" height="100%" viewBox="0 0 59 110" version="1.1" xmlns="http://www.w3.org/2000/svg" xmlns:xlink="http://www.w3.org/1999/xlink" xml:space="preserve" xmlns:serif="http://www.serif.com/" style="fill-rule:evenodd;clip-rule:evenodd;stroke-linecap:round;stroke-linejoin:round;stroke-miterlimit:1.5;">
    <g transform="matrix(1,0,0,1,-1661.19,-556.536)">
        <g transform="matrix(1,0,0,1,-24.1427,4.1987)">
            <g transform="matrix(1,0,0,1,413.189,-26.4512)">
                <g transform="matrix(1,0,0,1.01573,0,-13.304)">
                    <path d="M1329.07,598.042C1329.07,590.513 1322.87,584.4 1315.22,584.4L1287.5,584.4C1279.86,584.4 1273.65,590.513 1273.65,598.042L1273.65,675.337C1273.65,682.866 1279.86,688.979 1287.5,688.979L1315.22,688.979C1322.87,688.979 1329.07,682.866 1329.07,675.337L1329.07,598.042Z" style="fill:rgb(14,14,16);stroke:rgb(240,114,0);stroke-width:2.98px;"/>
                </g>
                <g transform="matrix(1.01919,0,0,1.13464,-25.1787,-94.5666)">
                    <path d="M1322.29,673.795C1322.29,671.229 1319.98,669.146 1317.12,669.146L1285.71,669.146C1282.86,669.146 1280.54,671.229 1280.54,673.795C1280.54,676.361 1282.86,678.445 1285.71,678.445L1317.12,678.445C1319.98,678.445 1322.29,676.361 1322.29,673.795Z" style="fill:rgb(240,114,0);"/>
                </g>
                <g id="static-qr-code-1b6e769e5fec1c3baebdc658b007c335.svg" transform="matrix(0.0704204,0,0,0.0704204,1301.36,631.909)">
                    <g transform="matrix(1,0,0,1,-300,-300)">
                        <rect x="0" y="0" width="600" height="600" style="fill:rgb(14,14,16);"/>
                        <g>
                            <g transform="matrix(4.12,0,0,4.12,288,48)">
                                <rect x="0" y="0" width="6" height="6" style="fill:rgb(240,114,0);"/>
                            </g>
                            <g transform="matrix(4.12,0,0,4.12,336,48)">
                                <rect x="0" y="0" width="6" height="6" style="fill:rgb(240,114,0);"/>
                            </g>
                            <g transform="matrix(4.12,0,0,4.12,240,72)">
                                <rect x="0" y="0" width="6" height="6" style="fill:rgb(240,114,0);"/>
                            </g>
                            <g transform="matrix(4.12,0,0,4.12,264,72)">
                                <rect x="0" y="0" width="6" height="6" style="fill:rgb(240,114,0);"/>
                            </g>
                            <g transform="matrix(4.12,0,0,4.12,288,72)">
                                <rect x="0" y="0" width="6" height="6" style="fill:rgb(240,114,0);"/>
                            </g>
                            <g transform="matrix(4.12,0,0,4.12,336,72)">
                                <rect x="0" y="0" width="6" height="6" style="fill:rgb(240,114,0);"/>
                            </g>
                            <g transform="matrix(4.12,0,0,4.12,288,96)">
                                <rect x="0" y="0" width="6" height="6" style="fill:rgb(240,114,0);"/>
                            </g>
                            <g transform="matrix(4.12,0,0,4.12,336,96)">
                                <rect x="0" y="0" width="6" height="6" style="fill:rgb(240,114,0);"/>
                            </g>
                            <g transform="matrix(4.12,0,0,4.12,240,120)">
                                <rect x="0" y="0" width="6" height="6" style="fill:rgb(240,114,0);"/>
                            </g>
                            <g transform="matrix(4.12,0,0,4.12,264,120)">
                                <rect x="0" y="0" width="6" height="6" style="fill:rgb(240,114,0);"/>
                            </g>
                            <g transform="matrix(4.12,0,0,4.12,336,120)">
                                <rect x="0" y="0" width="6" height="6" style="fill:rgb(240,114,0);"/>
                            </g>
                            <g transform="matrix(4.12,0,0,4.12,264,144)">
                                <rect x="0" y="0" width="6" height="6" style="fill:rgb(240,114,0);"/>
                            </g>
                            <g transform="matrix(4.12,0,0,4.12,312,144)">
                                <rect x="0" y="0" width="6" height="6" style="fill:rgb(240,114,0);"/>
                            </g>
                            <g transform="matrix(4.12,0,0,4.12,240,168)">
                                <rect x="0" y="0" width="6" height="6" style="fill:rgb(240,114,0);"/>
                            </g>
                            <g transform="matrix(4.12,0,0,4.12,312,168)">
                                <rect x="0" y="0" width="6" height="6" style="fill:rgb(240,114,0);"/>
                            </g>
                            <g transform="matrix(4.12,0,0,4.12,336,168)">
                                <rect x="0" y="0" width="6" height="6" style="fill:rgb(240,114,0);"/>
                            </g>
                            <g transform="matrix(4.12,0,0,4.12,240,192)">
                                <rect x="0" y="0" width="6" height="6" style="fill:rgb(240,114,0);"/>
                            </g>
                            <g transform="matrix(4.12,0,0,4.12,288,192)">
                                <rect x="0" y="0" width="6" height="6" style="fill:rgb(240,114,0);"/>
                            </g>
                            <g transform="matrix(4.12,0,0,4.12,336,192)">
                                <rect x="0" y="0" width="6" height="6" style="fill:rgb(240,114,0);"/>
                            </g>
                            <g transform="matrix(4.12,0,0,4.12,264,216)">
                                <rect x="0" y="0" width="6" height="6" style="fill:rgb(240,114,0);"/>
                            </g>
                            <g transform="matrix(4.12,0,0,4.12,336,216)">
                                <rect x="0" y="0" width="6" height="6" style="fill:rgb(240,114,0);"/>
                            </g>
                            <g transform="matrix(4.12,0,0,4.12,48,240)">
                                <rect x="0" y="0" width="6" height="6" style="fill:rgb(240,114,0);"/>
                            </g>
                            <g transform="matrix(4.12,0,0,4.12,72,240)">
                                <rect x="0" y="0" width="6" height="6" style="fill:rgb(240,114,0);"/>
                            </g>
                            <g transform="matrix(4.12,0,0,4.12,96,240)">
                                <rect x="0" y="0" width="6" height="6" style="fill:rgb(240,114,0);"/>
                            </g>
                            <g transform="matrix(4.12,0,0,4.12,120,240)">
                                <rect x="0" y="0" width="6" height="6" style="fill:rgb(240,114,0);"/>
                            </g>
                            <g transform="matrix(4.12,0,0,4.12,144,240)">
                                <rect x="0" y="0" width="6" height="6" style="fill:rgb(240,114,0);"/>
                            </g>
                            <g transform="matrix(4.12,0,0,4.12,192,240)">
                                <rect x="0" y="0" width="6" height="6" style="fill:rgb(240,114,0);"/>
                            </g>
                            <g transform="matrix(4.12,0,0,4.12,216,240)">
                                <rect x="0" y="0" width="6" height="6" style="fill:rgb(240,114,0);"/>
                            </g>
                            <g transform="matrix(4.12,0,0,4.12,240,240)">
                                <rect x="0" y="0" width="6" height="6" style="fill:rgb(240,114,0);"/>
                            </g>
                            <g transform="matrix(4.12,0,0,4.12,336,240)">
                                <rect x="0" y="0" width="6" height="6" style="fill:rgb(240,114,0);"/>
                            </g>
                            <g transform="matrix(4.12,0,0,4.12,360,240)">
                                <rect x="0" y="0" width="6" height="6" style="fill:rgb(240,114,0);"/>
                            </g>
                            <g transform="matrix(4.12,0,0,4.12,408,240)">
                                <rect x="0" y="0" width="6" height="6" style="fill:rgb(240,114,0);"/>
                            </g>
                            <g transform="matrix(4.12,0,0,4.12,456,240)">
                                <rect x="0" y="0" width="6" height="6" style="fill:rgb(240,114,0);"/>
                            </g>
                            <g transform="matrix(4.12,0,0,4.12,504,240)">
                                <rect x="0" y="0" width="6" height="6" style="fill:rgb(240,114,0);"/>
                            </g>
                            <g transform="matrix(4.12,0,0,4.12,48,264)">
                                <rect x="0" y="0" width="6" height="6" style="fill:rgb(240,114,0);"/>
                            </g>
                            <g transform="matrix(4.12,0,0,4.12,72,264)">
                                <rect x="0" y="0" width="6" height="6" style="fill:rgb(240,114,0);"/>
                            </g>
                            <g transform="matrix(4.12,0,0,4.12,96,264)">
                                <rect x="0" y="0" width="6" height="6" style="fill:rgb(240,114,0);"/>
                            </g>
                            <g transform="matrix(4.12,0,0,4.12,120,264)">
                                <rect x="0" y="0" width="6" height="6" style="fill:rgb(240,114,0);"/>
                            </g>
                            <g transform="matrix(4.12,0,0,4.12,216,264)">
                                <rect x="0" y="0" width="6" height="6" style="fill:rgb(240,114,0);"/>
                            </g>
                            <g transform="matrix(4.12,0,0,4.12,240,264)">
                                <rect x="0" y="0" width="6" height="6" style="fill:rgb(240,114,0);"/>
                            </g>
                            <g transform="matrix(4.12,0,0,4.12,264,264)">
                                <rect x="0" y="0" width="6" height="6" style="fill:rgb(240,114,0);"/>
                            </g>
                            <g transform="matrix(4.12,0,0,4.12,312,264)">
                                <rect x="0" y="0" width="6" height="6" style="fill:rgb(240,114,0);"/>
                            </g>
                            <g transform="matrix(4.12,0,0,4.12,384,264)">
                                <rect x="0" y="0" width="6" height="6" style="fill:rgb(240,114,0);"/>
                            </g>
                            <g transform="matrix(4.12,0,0,4.12,408,264)">
                                <rect x="0" y="0" width="6" height="6" style="fill:rgb(240,114,0);"/>
                            </g>
                            <g transform="matrix(4.12,0,0,4.12,432,264)">
                                <rect x="0" y="0" width="6" height="6" style="fill:rgb(240,114,0);"/>
                            </g>
                            <g transform="matrix(4.12,0,0,4.12,456,264)">
                                <rect x="0" y="0" width="6" height="6" style="fill:rgb(240,114,0);"/>
                            </g>
                            <g transform="matrix(4.12,0,0,4.12,480,264)">
                                <rect x="0" y="0" width="6" height="6" style="fill:rgb(240,114,0);"/>
                            </g>
                            <g transform="matrix(4.12,0,0,4.12,504,264)">
                                <rect x="0" y="0" width="6" height="6" style="fill:rgb(240,114,0);"/>
                            </g>
                            <g transform="matrix(4.12,0,0,4.12,528,264)">
                                <rect x="0" y="0" width="6" height="6" style="fill:rgb(240,114,0);"/>
                            </g>
                            <g transform="matrix(4.12,0,0,4.12,48,288)">
                                <rect x="0" y="0" width="6" height="6" style="fill:rgb(240,114,0);"/>
                            </g>
                            <g transform="matrix(4.12,0,0,4.12,72,288)">
                                <rect x="0" y="0" width="6" height="6" style="fill:rgb(240,114,0);"/>
                            </g>
                            <g transform="matrix(4.12,0,0,4.12,96,288)">
                                <rect x="0" y="0" width="6" height="6" style="fill:rgb(240,114,0);"/>
                            </g>
                            <g transform="matrix(4.12,0,0,4.12,192,288)">
                                <rect x="0" y="0" width="6" height="6" style="fill:rgb(240,114,0);"/>
                            </g>
                            <g transform="matrix(4.12,0,0,4.12,216,288)">
                                <rect x="0" y="0" width="6" height="6" style="fill:rgb(240,114,0);"/>
                            </g>
                            <g transform="matrix(4.12,0,0,4.12,264,288)">
                                <rect x="0" y="0" width="6" height="6" style="fill:rgb(240,114,0);"/>
                            </g>
                            <g transform="matrix(4.12,0,0,4.12,288,288)">
                                <rect x="0" y="0" width="6" height="6" style="fill:rgb(240,114,0);"/>
                            </g>
                            <g transform="matrix(4.12,0,0,4.12,312,288)">
                                <rect x="0" y="0" width="6" height="6" style="fill:rgb(240,114,0);"/>
                            </g>
                            <g transform="matrix(4.12,0,0,4.12,336,288)">
                                <rect x="0" y="0" width="6" height="6" style="fill:rgb(240,114,0);"/>
                            </g>
                            <g transform="matrix(4.12,0,0,4.12,360,288)">
                                <rect x="0" y="0" width="6" height="6" style="fill:rgb(240,114,0);"/>
                            </g>
                            <g transform="matrix(4.12,0,0,4.12,384,288)">
                                <rect x="0" y="0" width="6" height="6" style="fill:rgb(240,114,0);"/>
                            </g>
                            <g transform="matrix(4.12,0,0,4.12,480,288)">
                                <rect x="0" y="0" width="6" height="6" style="fill:rgb(240,114,0);"/>
                            </g>
                            <g transform="matrix(4.12,0,0,4.12,504,288)">
                                <rect x="0" y="0" width="6" height="6" style="fill:rgb(240,114,0);"/>
                            </g>
                            <g transform="matrix(4.12,0,0,4.12,144,312)">
                                <rect x="0" y="0" width="6" height="6" style="fill:rgb(240,114,0);"/>
                            </g>
                            <g transform="matrix(4.12,0,0,4.12,168,312)">
                                <rect x="0" y="0" width="6" height="6" style="fill:rgb(240,114,0);"/>
                            </g>
                            <g transform="matrix(4.12,0,0,4.12,288,312)">
                                <rect x="0" y="0" width="6" height="6" style="fill:rgb(240,114,0);"/>
                            </g>
                            <g transform="matrix(4.12,0,0,4.12,312,312)">
                                <rect x="0" y="0" width="6" height="6" style="fill:rgb(240,114,0);"/>
                            </g>
                            <g transform="matrix(4.12,0,0,4.12,336,312)">
                                <rect x="0" y="0" width="6" height="6" style="fill:rgb(240,114,0);"/>
                            </g>
                            <g transform="matrix(4.12,0,0,4.12,360,312)">
                                <rect x="0" y="0" width="6" height="6" style="fill:rgb(240,114,0);"/>
                            </g>
                            <g transform="matrix(4.12,0,0,4.12,432,312)">
                                <rect x="0" y="0" width="6" height="6" style="fill:rgb(240,114,0);"/>
                            </g>
                            <g transform="matrix(4.12,0,0,4.12,456,312)">
                                <rect x="0" y="0" width="6" height="6" style="fill:rgb(240,114,0);"/>
                            </g>
                            <g transform="matrix(4.12,0,0,4.12,480,312)">
                                <rect x="0" y="0" width="6" height="6" style="fill:rgb(240,114,0);"/>
                            </g>
                            <g transform="matrix(4.12,0,0,4.12,48,336)">
                                <rect x="0" y="0" width="6" height="6" style="fill:rgb(240,114,0);"/>
                            </g>
                            <g transform="matrix(4.12,0,0,4.12,72,336)">
                                <rect x="0" y="0" width="6" height="6" style="fill:rgb(240,114,0);"/>
                            </g>
                            <g transform="matrix(4.12,0,0,4.12,96,336)">
                                <rect x="0" y="0" width="6" height="6" style="fill:rgb(240,114,0);"/>
                            </g>
                            <g transform="matrix(4.12,0,0,4.12,120,336)">
                                <rect x="0" y="0" width="6" height="6" style="fill:rgb(240,114,0);"/>
                            </g>
                            <g transform="matrix(4.12,0,0,4.12,168,336)">
                                <rect x="0" y="0" width="6" height="6" style="fill:rgb(240,114,0);"/>
                            </g>
                            <g transform="matrix(4.12,0,0,4.12,192,336)">
                                <rect x="0" y="0" width="6" height="6" style="fill:rgb(240,114,0);"/>
                            </g>
                            <g transform="matrix(4.12,0,0,4.12,216,336)">
                                <rect x="0" y="0" width="6" height="6" style="fill:rgb(240,114,0);"/>
                            </g>
                            <g transform="matrix(4.12,0,0,4.12,336,336)">
                                <rect x="0" y="0" width="6" height="6" style="fill:rgb(240,114,0);"/>
                            </g>
                            <g transform="matrix(4.12,0,0,4.12,384,336)">
                                <rect x="0" y="0" width="6" height="6" style="fill:rgb(240,114,0);"/>
                            </g>
                            <g transform="matrix(4.12,0,0,4.12,432,336)">
                                <rect x="0" y="0" width="6" height="6" style="fill:rgb(240,114,0);"/>
                            </g>
                            <g transform="matrix(4.12,0,0,4.12,456,336)">
                                <rect x="0" y="0" width="6" height="6" style="fill:rgb(240,114,0);"/>
                            </g>
                            <g transform="matrix(4.12,0,0,4.12,528,336)">
                                <rect x="0" y="0" width="6" height="6" style="fill:rgb(240,114,0);"/>
                            </g>
                            <g transform="matrix(4.12,0,0,4.12,240,360)">
                                <rect x="0" y="0" width="6" height="6" style="fill:rgb(240,114,0);"/>
                            </g>
                            <g transform="matrix(4.12,0,0,4.12,288,360)">
                                <rect x="0" y="0" width="6" height="6" style="fill:rgb(240,114,0);"/>
                            </g>
                            <g transform="matrix(4.12,0,0,4.12,384,360)">
                                <rect x="0" y="0" width="6" height="6" style="fill:rgb(240,114,0);"/>
                            </g>
                            <g transform="matrix(4.12,0,0,4.12,408,360)">
                                <rect x="0" y="0" width="6" height="6" style="fill:rgb(240,114,0);"/>
                            </g>
                            <g transform="matrix(4.12,0,0,4.12,432,360)">
                                <rect x="0" y="0" width="6" height="6" style="fill:rgb(240,114,0);"/>
                            </g>
                            <g transform="matrix(4.12,0,0,4.12,456,360)">
                                <rect x="0" y="0" width="6" height="6" style="fill:rgb(240,114,0);"/>
                            </g>
                            <g transform="matrix(4.12,0,0,4.12,480,360)">
                                <rect x="0" y="0" width="6" height="6" style="fill:rgb(240,114,0);"/>
                            </g>
                            <g transform="matrix(4.12,0,0,4.12,528,360)">
                                <rect x="0" y="0" width="6" height="6" style="fill:rgb(240,114,0);"/>
                            </g>
                            <g transform="matrix(4.12,0,0,4.12,240,384)">
                                <rect x="0" y="0" width="6" height="6" style="fill:rgb(240,114,0);"/>
                            </g>
                            <g transform="matrix(4.12,0,0,4.12,288,384)">
                                <rect x="0" y="0" width="6" height="6" style="fill:rgb(240,114,0);"/>
                            </g>
                            <g transform="matrix(4.12,0,0,4.12,312,384)">
                                <rect x="0" y="0" width="6" height="6" style="fill:rgb(240,114,0);"/>
                            </g>
                            <g transform="matrix(4.12,0,0,4.12,336,384)">
                                <rect x="0" y="0" width="6" height="6" style="fill:rgb(240,114,0);"/>
                            </g>
                            <g transform="matrix(4.12,0,0,4.12,360,384)">
                                <rect x="0" y="0" width="6" height="6" style="fill:rgb(240,114,0);"/>
                            </g>
                            <g transform="matrix(4.12,0,0,4.12,384,384)">
                                <rect x="0" y="0" width="6" height="6" style="fill:rgb(240,114,0);"/>
                            </g>
                            <g transform="matrix(4.12,0,0,4.12,408,384)">
                                <rect x="0" y="0" width="6" height="6" style="fill:rgb(240,114,0);"/>
                            </g>
                            <g transform="matrix(4.12,0,0,4.12,480,384)">
                                <rect x="0" y="0" width="6" height="6" style="fill:rgb(240,114,0);"/>
                            </g>
                            <g transform="matrix(4.12,0,0,4.12,504,384)">
                                <rect x="0" y="0" width="6" height="6" style="fill:rgb(240,114,0);"/>
                            </g>
                            <g transform="matrix(4.12,0,0,4.12,288,408)">
                                <rect x="0" y="0" width="6" height="6" style="fill:rgb(240,114,0);"/>
                            </g>
                            <g transform="matrix(4.12,0,0,4.12,360,408)">
                                <rect x="0" y="0" width="6" height="6" style="fill:rgb(240,114,0);"/>
                            </g>
                            <g transform="matrix(4.12,0,0,4.12,432,408)">
                                <rect x="0" y="0" width="6" height="6" style="fill:rgb(240,114,0);"/>
                            </g>
                            <g transform="matrix(4.12,0,0,4.12,456,408)">
                                <rect x="0" y="0" width="6" height="6" style="fill:rgb(240,114,0);"/>
                            </g>
                            <g transform="matrix(4.12,0,0,4.12,480,408)">
                                <rect x="0" y="0" width="6" height="6" style="fill:rgb(240,114,0);"/>
                            </g>
                            <g transform="matrix(4.12,0,0,4.12,504,408)">
                                <rect x="0" y="0" width="6" height="6" style="fill:rgb(240,114,0);"/>
                            </g>
                            <g transform="matrix(4.12,0,0,4.12,528,408)">
                                <rect x="0" y="0" width="6" height="6" style="fill:rgb(240,114,0);"/>
                            </g>
                            <g transform="matrix(4.12,0,0,4.12,240,432)">
                                <rect x="0" y="0" width="6" height="6" style="fill:rgb(240,114,0);"/>
                            </g>
                            <g transform="matrix(4.12,0,0,4.12,288,432)">
                                <rect x="0" y="0" width="6" height="6" style="fill:rgb(240,114,0);"/>
                            </g>
                            <g transform="matrix(4.12,0,0,4.12,312,432)">
                                <rect x="0" y="0" width="6" height="6" style="fill:rgb(240,114,0);"/>
                            </g>
                            <g transform="matrix(4.12,0,0,4.12,384,432)">
                                <rect x="0" y="0" width="6" height="6" style="fill:rgb(240,114,0);"/>
                            </g>
                            <g transform="matrix(4.12,0,0,4.12,432,432)">
                                <rect x="0" y="0" width="6" height="6" style="fill:rgb(240,114,0);"/>
                            </g>
                            <g transform="matrix(4.12,0,0,4.12,456,432)">
                                <rect x="0" y="0" width="6" height="6" style="fill:rgb(240,114,0);"/>
                            </g>
                            <g transform="matrix(4.12,0,0,4.12,504,432)">
                                <rect x="0" y="0" width="6" height="6" style="fill:rgb(240,114,0);"/>
                            </g>
                            <g transform="matrix(4.12,0,0,4.12,528,432)">
                                <rect x="0" y="0" width="6" height="6" style="fill:rgb(240,114,0);"/>
                            </g>
                            <g transform="matrix(4.12,0,0,4.12,240,456)">
                                <rect x="0" y="0" width="6" height="6" style="fill:rgb(240,114,0);"/>
                            </g>
                            <g transform="matrix(4.12,0,0,4.12,408,456)">
                                <rect x="0" y="0" width="6" height="6" style="fill:rgb(240,114,0);"/>
                            </g>
                            <g transform="matrix(4.12,0,0,4.12,432,456)">
                                <rect x="0" y="0" width="6" height="6" style="fill:rgb(240,114,0);"/>
                            </g>
                            <g transform="matrix(4.12,0,0,4.12,480,456)">
                                <rect x="0" y="0" width="6" height="6" style="fill:rgb(240,114,0);"/>
                            </g>
                            <g transform="matrix(4.12,0,0,4.12,240,480)">
                                <rect x="0" y="0" width="6" height="6" style="fill:rgb(240,114,0);"/>
                            </g>
                            <g transform="matrix(4.12,0,0,4.12,336,480)">
                                <rect x="0" y="0" width="6" height="6" style="fill:rgb(240,114,0);"/>
                            </g>
                            <g transform="matrix(4.12,0,0,4.12,384,480)">
                                <rect x="0" y="0" width="6" height="6" style="fill:rgb(240,114,0);"/>
                            </g>
                            <g transform="matrix(4.12,0,0,4.12,408,480)">
                                <rect x="0" y="0" width="6" height="6" style="fill:rgb(240,114,0);"/>
                            </g>
                            <g transform="matrix(4.12,0,0,4.12,480,480)">
                                <rect x="0" y="0" width="6" height="6" style="fill:rgb(240,114,0);"/>
                            </g>
                            <g transform="matrix(4.12,0,0,4.12,240,504)">
                                <rect x="0" y="0" width="6" height="6" style="fill:rgb(240,114,0);"/>
                            </g>
                            <g transform="matrix(4.12,0,0,4.12,264,504)">
                                <rect x="0" y="0" width="6" height="6" style="fill:rgb(240,114,0);"/>
                            </g>
                            <g transform="matrix(4.12,0,0,4.12,288,504)">
                                <rect x="0" y="0" width="6" height="6" style="fill:rgb(240,114,0);"/>
                            </g>
                            <g transform="matrix(4.12,0,0,4.12,312,504)">
                                <rect x="0" y="0" width="6" height="6" style="fill:rgb(240,114,0);"/>
                            </g>
                            <g transform="matrix(4.12,0,0,4.12,360,504)">
                                <rect x="0" y="0" width="6" height="6" style="fill:rgb(240,114,0);"/>
                            </g>
                            <g transform="matrix(4.12,0,0,4.12,408,504)">
                                <rect x="0" y="0" width="6" height="6" style="fill:rgb(240,114,0);"/>
                            </g>
                            <g transform="matrix(4.12,0,0,4.12,432,504)">
                                <rect x="0" y="0" width="6" height="6" style="fill:rgb(240,114,0);"/>
                            </g>
                            <g transform="matrix(4.12,0,0,4.12,480,504)">
                                <rect x="0" y="0" width="6" height="6" style="fill:rgb(240,114,0);"/>
                            </g>
                            <g transform="matrix(4.12,0,0,4.12,240,528)">
                                <rect x="0" y="0" width="6" height="6" style="fill:rgb(240,114,0);"/>
                            </g>
                            <g transform="matrix(4.12,0,0,4.12,288,528)">
                                <rect x="0" y="0" width="6" height="6" style="fill:rgb(240,114,0);"/>
                            </g>
                            <g transform="matrix(4.12,0,0,4.12,384,528)">
                                <rect x="0" y="0" width="6" height="6" style="fill:rgb(240,114,0);"/>
                            </g>
                            <g transform="matrix(4.12,0,0,4.12,408,528)">
                                <rect x="0" y="0" width="6" height="6" style="fill:rgb(240,114,0);"/>
                            </g>
                            <g transform="matrix(4.12,0,0,4.12,432,528)">
                                <rect x="0" y="0" width="6" height="6" style="fill:rgb(240,114,0);"/>
                            </g>
                            <g transform="matrix(4.12,0,0,4.12,456,528)">
                                <rect x="0" y="0" width="6" height="6" style="fill:rgb(240,114,0);"/>
                            </g>
                            <g transform="matrix(4.12,0,0,4.12,504,528)">
                                <rect x="0" y="0" width="6" height="6" style="fill:rgb(240,114,0);"/>
                            </g>
                            <g transform="matrix(12,0,0,12,48,48)">
                                <g>
                                    <path d="M0,0L0,14L14,14L14,0L0,0ZM12,12L2,12L2,2L12,2L12,12Z" style="fill:rgb(240,114,0);fill-rule:nonzero;"/>
                                </g>
                            </g>
                            <g transform="matrix(12,0,0,12,384,48)">
                                <g>
                                    <path d="M0,0L0,14L14,14L14,0L0,0ZM12,12L2,12L2,2L12,2L12,12Z" style="fill:rgb(240,114,0);fill-rule:nonzero;"/>
                                </g>
                            </g>
                            <g transform="matrix(12,0,0,12,48,384)">
                                <g>
                                    <path d="M0,0L0,14L14,14L14,0L0,0ZM12,12L2,12L2,2L12,2L12,12Z" style="fill:rgb(240,114,0);fill-rule:nonzero;"/>
                                </g>
                            </g>
                            <g transform="matrix(12,0,0,12,96,96)">
                                <g>
                                    <rect x="0" y="0" width="6" height="6" style="fill:rgb(240,114,0);"/>
                                </g>
                            </g>
                            <g transform="matrix(12,0,0,12,432,96)">
                                <g>
                                    <rect x="0" y="0" width="6" height="6" style="fill:rgb(240,114,0);"/>
                                </g>
                            </g>
                            <g transform="matrix(12,0,0,12,96,432)">
                                <g>
                                    <rect x="0" y="0" width="6" height="6" style="fill:rgb(240,114,0);"/>
                                </g>
                            </g>
                        </g>
                    </g>
                </g>
            </g>
            <g transform="matrix(0.206966,0,0,0.197991,1340.86,458.568)">
                <g transform="matrix(41.3436,0,0,41.3436,1705.69,568.635)">
                    <path d="M0.787,-0.7L0.513,-0.366L0.658,-0L0.402,-0L0.307,-0.292C0.304,-0.3 0.301,-0.313 0.298,-0.332L0.296,-0.332L0.226,-0L0.015,-0L0.163,-0.7L0.374,-0.7L0.306,-0.378L0.308,-0.378L0.32,-0.396L0.537,-0.7L0.787,-0.7Z" style="fill:rgb(240,114,0);fill-rule:nonzero;"/>
                </g>
                <g transform="matrix(41.3436,0,0,41.3436,1731.82,568.635)">
                    <path d="M0.225,-0L0.014,-0L0.162,-0.7L0.373,-0.7L0.225,-0Z" style="fill:rgb(240,114,0);fill-rule:nonzero;"/>
                </g>
                <g transform="matrix(41.3436,0,0,41.3436,1743.81,568.635)">
                    <path d="M0.632,-0.495C0.612,-0.505 0.59,-0.513 0.566,-0.519C0.543,-0.526 0.514,-0.529 0.48,-0.529C0.436,-0.529 0.397,-0.519 0.365,-0.5C0.333,-0.481 0.308,-0.455 0.29,-0.421C0.273,-0.387 0.264,-0.349 0.264,-0.307C0.264,-0.264 0.277,-0.229 0.304,-0.205C0.33,-0.18 0.368,-0.168 0.418,-0.168C0.44,-0.168 0.465,-0.172 0.492,-0.179C0.52,-0.186 0.546,-0.196 0.572,-0.208L0.53,-0.015C0.479,0.003 0.423,0.012 0.362,0.012C0.259,0.012 0.18,-0.014 0.124,-0.067C0.068,-0.12 0.04,-0.194 0.04,-0.288C0.04,-0.372 0.059,-0.448 0.097,-0.513C0.135,-0.579 0.189,-0.629 0.257,-0.662C0.326,-0.695 0.406,-0.712 0.498,-0.712C0.528,-0.712 0.559,-0.71 0.592,-0.705C0.625,-0.7 0.652,-0.694 0.675,-0.688L0.632,-0.495Z" style="fill:rgb(240,114,0);fill-rule:nonzero;"/>
                </g>
                <g transform="matrix(41.3436,0,0,41.3436,1767.46,568.635)">
                    <path d="M0.787,-0.7L0.513,-0.366L0.658,-0L0.402,-0L0.307,-0.292C0.304,-0.3 0.301,-0.313 0.298,-0.332L0.296,-0.332L0.226,-0L0.015,-0L0.163,-0.7L0.374,-0.7L0.306,-0.378L0.308,-0.378L0.32,-0.396L0.537,-0.7L0.787,-0.7Z" style="fill:rgb(240,114,0);fill-rule:nonzero;"/>
                </g>
                <g transform="matrix(41.3436,0,0,41.3436,1793.58,568.635)">
                    <path d="M0.695,-0.536C0.695,-0.492 0.679,-0.456 0.648,-0.427C0.617,-0.398 0.574,-0.378 0.52,-0.368L0.52,-0.366C0.564,-0.361 0.598,-0.345 0.623,-0.318C0.648,-0.292 0.66,-0.258 0.66,-0.217C0.66,-0.173 0.648,-0.134 0.624,-0.102C0.599,-0.069 0.563,-0.044 0.516,-0.027C0.469,-0.009 0.411,-0 0.343,-0L0.015,-0L0.163,-0.7L0.451,-0.7C0.534,-0.7 0.595,-0.687 0.635,-0.66C0.675,-0.633 0.695,-0.592 0.695,-0.536ZM0.471,-0.495C0.471,-0.519 0.465,-0.535 0.451,-0.545C0.438,-0.554 0.415,-0.559 0.383,-0.559L0.344,-0.559L0.316,-0.427L0.382,-0.427C0.408,-0.427 0.429,-0.433 0.446,-0.447C0.463,-0.46 0.471,-0.476 0.471,-0.495ZM0.436,-0.221C0.436,-0.24 0.43,-0.256 0.417,-0.268C0.405,-0.279 0.388,-0.285 0.366,-0.285L0.287,-0.285L0.255,-0.142L0.329,-0.142C0.363,-0.142 0.389,-0.149 0.408,-0.163C0.427,-0.177 0.436,-0.197 0.436,-0.221Z" style="fill:rgb(240,114,0);fill-rule:nonzero;"/>
                </g>
                <g transform="matrix(41.3436,0,0,41.3436,1820.17,568.635)">
                    <path d="M0.469,-0L0.459,-0.129L0.249,-0.129L0.186,-0L-0.046,-0L0.343,-0.7L0.605,-0.7L0.684,-0L0.469,-0ZM0.438,-0.492C0.438,-0.514 0.439,-0.53 0.441,-0.54L0.436,-0.54L0.427,-0.516L0.408,-0.473L0.323,-0.294L0.448,-0.294L0.439,-0.469L0.438,-0.492Z" style="fill:rgb(240,114,0);fill-rule:nonzero;"/>
                </g>
                <g transform="matrix(41.3436,0,0,41.3436,1848.59,568.635)">
                    <path d="M0.632,-0.495C0.612,-0.505 0.59,-0.513 0.566,-0.519C0.543,-0.526 0.514,-0.529 0.48,-0.529C0.436,-0.529 0.397,-0.519 0.365,-0.5C0.333,-0.481 0.308,-0.455 0.29,-0.421C0.273,-0.387 0.264,-0.349 0.264,-0.307C0.264,-0.264 0.277,-0.229 0.304,-0.205C0.33,-0.18 0.368,-0.168 0.418,-0.168C0.44,-0.168 0.465,-0.172 0.492,-0.179C0.52,-0.186 0.546,-0.196 0.572,-0.208L0.53,-0.015C0.479,0.003 0.423,0.012 0.362,0.012C0.259,0.012 0.18,-0.014 0.124,-0.067C0.068,-0.12 0.04,-0.194 0.04,-0.288C0.04,-0.372 0.059,-0.448 0.097,-0.513C0.135,-0.579 0.189,-0.629 0.257,-0.662C0.326,-0.695 0.406,-0.712 0.498,-0.712C0.528,-0.712 0.559,-0.71 0.592,-0.705C0.625,-0.7 0.652,-0.694 0.675,-0.688L0.632,-0.495Z" style="fill:rgb(240,114,0);fill-rule:nonzero;"/>
                </g>
                <g transform="matrix(41.3436,0,0,41.3436,1872.23,568.635)">
                    <path d="M0.787,-0.7L0.513,-0.366L0.658,-0L0.402,-0L0.307,-0.292C0.304,-0.3 0.301,-0.313 0.298,-0.332L0.296,-0.332L0.226,-0L0.015,-0L0.163,-0.7L0.374,-0.7L0.306,-0.378L0.308,-0.378L0.32,-0.396L0.537,-0.7L0.787,-0.7Z" style="fill:rgb(240,114,0);fill-rule:nonzero;"/>
                </g>
            </g>
        </g>
    </g>
</svg>
